<?xml version="1.0" encoding="utf-8"?>
<!-- Generator: Adobe Illustrator 27.5.0, SVG Export Plug-In . SVG Version: 6.00 Build 0)  -->
<svg version="1.1" id="레이어_1" xmlns="http://www.w3.org/2000/svg" xmlns:xlink="http://www.w3.org/1999/xlink" x="0px"
	 y="0px" viewBox="0 0 128 128" style="enable-background:new 0 0 128 128;" xml:space="preserve">
<style type="text/css">
	.st0{fill:#6001D1;}
	.st1{fill:#FFFFFF;}
</style>
<rect x="-1.55" y="-0.91" class="st0" width="130.46" height="129.63"/>
<path class="st1" d="M90.57,90.09H71.34l19.2-19.22c0.84-0.84,1.16-2.06,0.86-3.2l-2.53-9.45c-0.39-1.45-1.7-2.46-3.2-2.46H71.94   l20.94-20.96c0.84-0.84,1.16-2.06,0.86-3.2l-2.53-9.45c-0.39-1.45-1.7-2.46-3.2-2.46H43.62v0V16c0-0.46-0.27-0.88-0.69-1.06l-2.28-1   c-0.42-0.18-0.91-0.1-1.25,0.21L23.71,28.53c-0.24,0.22-0.38,0.53-0.38,0.85v0.82v0.82c0,0.32,0.14,0.63,0.38,0.85l15.69,14.38   c0.34,0.31,0.83,0.39,1.25,0.21l2.28-1c0.42-0.18,0.69-0.6,0.69-1.06v-3.7h16.79L39.22,61.92c-0.84,0.84-1.16,2.06-0.86,3.21   l1.99,7.38c0.39,1.45,1.71,2.46,3.21,2.45l16.25-0.04L36.76,97.99c-0.84,0.84-1.16,2.06-0.86,3.2l2,7.45   c0.39,1.45,1.7,2.46,3.21,2.46l49.47-0.07c1.83,0,3.31-1.49,3.31-3.32V93.41C93.88,91.58,92.4,90.09,90.57,90.09z"/>
</svg>
